# xmcd
#
# Track frame offsets:
#	150
#	24730
#	46400
#	63975
#	88428
#	103850
#	123098
#	142626
#	165016
#	182838
#	207201
#	233099
#	257388
#	275443
#	295748
#	318413
#	335523
#
# Disc length: 4770 seconds
#
# Revision: 3
# Processed by: cddbd v1.5.2PL0 Copyright (c) Steve Scherf et al.
# Submitted via: EZCDAudioConverter 6.0.0.1
#
DISCID=e912a011
DTITLE=Various Artist - Akella Presents - Blues-Rock - vol.12  CD1 New!
DYEAR=2013
DGENRE=Blues
TTITLE0=BUDDAHHEADS - Blue Charade
TTITLE1=SMOKIN' JOE KUBEK - Take Your Best Shot
TTITLE2=WES JEANS - Victim Of the Game
TTITLE3=JULIAN SAS - A Light in the Dark
TTITLE4=JOHNNY GALE - I'm Cryin'
TTITLE5=BLINDSIDE BLUES BAND - Dirty Double Dealer
TTITLE6=LARRY MILLER - Missy Mango
TTITLE7=MARK REECE - Gypst Blood
TTITLE8=JEFF HEALEY - Which One
TTITLE9=MIKE ONESKO - Whirlwind
TTITLE10=HOWLING IGUANAS - When Life Has It's Way
TTITLE11=GOTTHARD - Get It White You Can
TTITLE12=KENNY WAYNE SHEPHERD - Never Mind
TTITLE13=PAT TRAVERS - The More Things Chance
TTITLE14=STEVE FISTER - Deeper than the blues
TTITLE15=BONAFIDE - Peg Legged Pete
TTITLE16=LESLIE WEST - Me and My Guitar
EXTD=
EXTT0=
EXTT1=
EXTT2=
EXTT3=
EXTT4=
EXTT5=
EXTT6=
EXTT7=
EXTT8=
EXTT9=
EXTT10=
EXTT11=
EXTT12=
EXTT13=
EXTT14=
EXTT15=
EXTT16=
PLAYORDER=
